IKResults
version=1
nRows=6
nColumns=38
inDegrees=yes

Units are S.I. units (second, meters, Newtons, ...)
Angles are in degrees.

endheader
time	pelvis_tilt	pelvis_list	pelvis_rotation	pelvis_tx	pelvis_ty	pelvis_tz	hip_flexion_r	hip_adduction_r	hip_rotation_r	knee_angle_r	ankle_angle_r	subtalar_angle_r	mtp_angle_r	hip_flexion_l	hip_adduction_l	hip_rotation_l	knee_angle_l	ankle_angle_l	subtalar_angle_l	mtp_angle_l	lumbar_extension	lumbar_bending	lumbar_rotation	arm_flex_r	arm_add_r	arm_rot_r	elbow_flex_r	pro_sup_r	wrist_flex_r	wrist_dev_r	arm_flex_l	arm_add_l	arm_rot_l	elbow_flex_l	pro_sup_l	wrist_flex_l	wrist_dev_l
      5.01000000	     -3.83045957	     -0.19499929	     -5.35798534	      0.67344027	      0.90892022	      0.57234277	      6.76309289	     -0.44434680	     -8.60273353	    -10.52042984	      2.98993664	     -4.69735943	     25.18517922	      3.93467816	     -2.71530897	     -8.64897867	     -6.96598321	      0.08695464	     -3.39882356	     -0.38892396	      4.45472558	     -0.88899435	      0.18121988	     13.30892771	    -63.97312716	     -1.39731927	     -1.97233521	     86.51662706	      0.00000000	      0.00000000	     16.87533913	    -69.81354683	      0.37359373	     -2.09287923	     85.94366927	      0.00000000	      0.00000000
      5.02000000	     -3.81370268	     -0.20280255	     -5.33925253	      0.67373313	      0.90898158	      0.57224946	      6.72907452	     -0.44986954	     -8.59435809	    -10.55103316	      2.99406551	     -4.69660298	     25.18460605	      3.89095435	     -2.71190099	     -8.66294241	     -6.96112566	      0.07187131	     -3.39926260	     -0.38883555	      4.53519387	     -0.86481114	      0.14356187	     13.34144211	    -63.93713992	     -1.38969772	     -1.93705025	     86.51662706	      0.00000000	      0.00000000	     16.89392613	    -69.76904529	      0.39207508	     -2.03208311	     85.94366927	      0.00000000	      0.00000000
      5.03000000	     -3.81124340	     -0.20301708	     -5.34575383	      0.67362952	      0.90898039	      0.57226289	      6.73174753	     -0.44763587	     -8.59529707	    -10.54547000	      2.99579702	     -4.69657342	     25.18444495	      3.89148188	     -2.71354953	     -8.66330520	     -6.95420947	      0.07148863	     -3.39919249	     -0.38886420	      4.53510297	     -0.86947196	      0.13473999	     13.34567777	    -63.94025507	     -1.38910965	     -1.93390822	     86.51662706	      0.00000000	      0.00000000	     16.89686175	    -69.76487234	      0.39419769	     -2.02461752	     85.94366927	      0.00000000	      0.00000000
      5.04000000	     -3.81187369	     -0.20221003	     -5.34597012	      0.67361602	      0.90897608	      0.57224058	      6.73143687	     -0.44742783	     -8.59535096	    -10.54551829	      2.99582443	     -4.69658055	     25.18444024	      3.89117585	     -2.71394966	     -8.66333096	     -6.95411229	      0.07146138	     -3.39920110	     -0.38886502	      4.53511675	     -0.86938411	      0.13446263	     13.34584699	    -63.94016420	     -1.38908465	     -1.93376255	     86.51662706	      0.00000000	      0.00000000	     16.89699189	    -69.76473217	      0.39427744	     -2.02431965	     85.94366927	      0.00000000	      0.00000000
      5.05000000	     -3.81381547	     -0.20526653	     -5.32639787	      0.67361174	      0.90896643	      0.57217345	      6.71568763	     -0.44959372	     -8.60080581	    -10.51500352	      3.01992324	     -4.69494274	     25.18199464	      3.87333658	     -2.71090799	     -8.67118847	     -6.89926025	      0.05235911	     -3.39982046	     -0.38862087	      4.57983568	     -0.85421364	      0.10063299	     13.43585733	    -63.91790477	     -1.37995215	     -1.86801433	     86.51662706	      0.00000000	      0.00000000	     16.94242956	    -69.72299480	      0.43196479	     -1.89562670	     85.94366927	      0.00000000	      0.00000000
      5.06000000	     -3.81272822	     -0.20586902	     -5.32906221	      0.67357934	      0.90896307	      0.57215636	      6.71575940	     -0.44930998	     -8.60094883	    -10.51473462	      3.01986702	     -4.69496077	     25.18198826	      3.87343911	     -2.71017635	     -8.67093464	     -6.89938404	      0.05217649	     -3.39972585	     -0.38860498	      4.58046823	     -0.85435553	      0.09837538	     13.43581749	    -63.91786580	     -1.38005487	     -1.86828530	     86.51662706	      0.00000000	      0.00000000	     16.94273782	    -69.72308250	      0.43212922	     -1.89499970	     85.94366927	      0.00000000	      0.00000000
